<?xml version="1.0" encoding="UTF-8" standalone="no"?>
<!DOCTYPE svg PUBLIC "-//W3C//DTD SVG 1.1//EN"
 "http://www.w3.org/Graphics/SVG/1.1/DTD/svg11.dtd">
<!-- Generated by graphviz version 9.0.0 (0)
 -->
<!-- Pages: 1 -->
<svg width="756pt" height="487pt"
 viewBox="0.00 0.00 755.89 487.00" xmlns="http://www.w3.org/2000/svg" xmlns:xlink="http://www.w3.org/1999/xlink">
<g id="graph0" class="graph" transform="scale(1 1) rotate(0) translate(4 483)">
<polygon fill="white" stroke="none" points="-4,4 -4,-483 751.89,-483 751.89,4 -4,4"/>
<!-- fake -->
<g id="node1" class="node">
<title>fake</title>
</g>
<!-- 0 -->
<g id="node2" class="node">
<title>0</title>
<ellipse fill="none" stroke="black" cx="551.64" cy="-388" rx="27" ry="18"/>
<text text-anchor="middle" x="551.64" y="-382.95" font-family="Times,serif" font-size="14.00">0</text>
</g>
<!-- fake&#45;&gt;0 -->
<g id="edge1" class="edge">
<title>fake&#45;&gt;0</title>
<path fill="none" stroke="black" stroke-width="2" d="M551.64,-442.81C551.64,-435.23 551.64,-426.1 551.64,-417.54"/>
<polygon fill="black" stroke="black" stroke-width="2" points="555.14,-419.06 551.64,-409.06 548.14,-419.06 555.14,-419.06"/>
</g>
<!-- 2 -->
<g id="node4" class="node">
<title>2</title>
<ellipse fill="none" stroke="black" cx="32.64" cy="-207" rx="27" ry="18"/>
<text text-anchor="middle" x="32.64" y="-201.95" font-family="Times,serif" font-size="14.00">2</text>
</g>
<!-- 0&#45;&gt;2 -->
<g id="edge9" class="edge">
<title>0&#45;&gt;2</title>
<path fill="none" stroke="black" d="M526.03,-382C458.84,-368.36 272.77,-327.23 128.64,-263.5 104.87,-252.99 79.47,-238.13 60.77,-226.43"/>
<polygon fill="black" stroke="black" points="62.72,-223.52 52.4,-221.12 58.97,-229.43 62.72,-223.52"/>
<text text-anchor="middle" x="305.89" y="-294.45" font-family="Times,serif" font-size="14.00">b &amp; c &amp; ~d</text>
</g>
<!-- 6 -->
<g id="node8" class="node">
<title>6</title>
<ellipse fill="none" stroke="black" cx="398.64" cy="-299.5" rx="27" ry="18"/>
<text text-anchor="middle" x="398.64" y="-294.45" font-family="Times,serif" font-size="14.00">6</text>
</g>
<!-- 0&#45;&gt;6 -->
<g id="edge27" class="edge">
<title>0&#45;&gt;6</title>
<path fill="none" stroke="black" d="M531.63,-375.69C505.29,-360.8 458.75,-334.49 428.3,-317.27"/>
<polygon fill="black" stroke="black" points="430.39,-314.43 419.96,-312.56 426.94,-320.52 430.39,-314.43"/>
<text text-anchor="middle" x="524.64" y="-338.7" font-family="Times,serif" font-size="14.00">c &amp; ~b &amp; ~d</text>
</g>
<!-- 7 -->
<g id="node9" class="node">
<title>7</title>
<ellipse fill="none" stroke="black" cx="618.64" cy="-207" rx="27" ry="18"/>
<text text-anchor="middle" x="618.64" y="-201.95" font-family="Times,serif" font-size="14.00">7</text>
</g>
<!-- 0&#45;&gt;7 -->
<g id="edge4" class="edge">
<title>0&#45;&gt;7</title>
<path fill="none" stroke="black" d="M557.94,-370.16C569.51,-339.24 594.25,-273.16 608.31,-235.6"/>
<polygon fill="black" stroke="black" points="611.54,-236.94 611.77,-226.34 604.99,-234.48 611.54,-236.94"/>
<text text-anchor="middle" x="627.01" y="-294.45" font-family="Times,serif" font-size="14.00">~b &amp; (d | ~c)</text>
</g>
<!-- 8 -->
<g id="node10" class="node">
<title>8</title>
<ellipse fill="none" stroke="black" cx="689.64" cy="-207" rx="18" ry="18"/>
<ellipse fill="none" stroke="black" cx="689.64" cy="-207" rx="22" ry="22"/>
<text text-anchor="middle" x="689.64" y="-201.95" font-family="Times,serif" font-size="14.00">8</text>
</g>
<!-- 0&#45;&gt;8 -->
<g id="edge24" class="edge">
<title>0&#45;&gt;8</title>
<path fill="none" stroke="black" d="M575.75,-379.25C602.55,-369.35 645.03,-349.53 667.64,-317.5 683.44,-295.11 688.5,-264.06 689.86,-240.74"/>
<polygon fill="black" stroke="black" points="693.35,-240.97 690.22,-230.85 686.36,-240.71 693.35,-240.97"/>
<text text-anchor="middle" x="715.26" y="-294.45" font-family="Times,serif" font-size="14.00">b &amp; (d | ~c)</text>
</g>
<!-- 1 -->
<g id="node3" class="node">
<title>1</title>
<ellipse fill="none" stroke="black" cx="110.64" cy="-114.5" rx="27" ry="18"/>
<text text-anchor="middle" x="110.64" y="-109.45" font-family="Times,serif" font-size="14.00">1</text>
</g>
<!-- 1&#45;&gt;1 -->
<g id="edge13" class="edge">
<title>1&#45;&gt;1</title>
<path fill="none" stroke="black" d="M135.17,-122.67C146.14,-123.45 155.64,-120.72 155.64,-114.5 155.64,-110.61 151.93,-108.09 146.47,-106.93"/>
<polygon fill="black" stroke="black" points="146.85,-103.45 136.68,-106.41 146.48,-110.44 146.85,-103.45"/>
<text text-anchor="middle" x="175.14" y="-109.45" font-family="Times,serif" font-size="14.00">c &amp; ~d</text>
</g>
<!-- 9 -->
<g id="node11" class="node">
<title>9</title>
<ellipse fill="none" stroke="black" cx="359.64" cy="-22" rx="18" ry="18"/>
<ellipse fill="none" stroke="black" cx="359.64" cy="-22" rx="22" ry="22"/>
<text text-anchor="middle" x="359.64" y="-16.95" font-family="Times,serif" font-size="14.00">9</text>
</g>
<!-- 1&#45;&gt;9 -->
<g id="edge11" class="edge">
<title>1&#45;&gt;9</title>
<path fill="none" stroke="black" d="M126.88,-99.66C141.43,-87.96 163.82,-71.6 185.89,-62 232.24,-41.83 290.26,-31.51 326.14,-26.69"/>
<polygon fill="black" stroke="black" points="326.43,-30.19 335.91,-25.45 325.54,-23.24 326.43,-30.19"/>
<text text-anchor="middle" x="202.01" y="-65.2" font-family="Times,serif" font-size="14.00">d | ~c</text>
</g>
<!-- 2&#45;&gt;1 -->
<g id="edge14" class="edge">
<title>2&#45;&gt;1</title>
<path fill="none" stroke="black" d="M28.17,-188.86C26.14,-177.13 25.59,-161.73 32.89,-150.5 35.62,-146.28 57.35,-136.69 77.14,-128.61"/>
<polygon fill="black" stroke="black" points="78.43,-131.86 86.4,-124.88 75.81,-125.37 78.43,-131.86"/>
<text text-anchor="middle" x="65.51" y="-153.7" font-family="Times,serif" font-size="14.00">a &amp; c &amp; ~d</text>
</g>
<!-- 3 -->
<g id="node5" class="node">
<title>3</title>
<ellipse fill="none" stroke="black" cx="534.64" cy="-114.5" rx="27" ry="18"/>
<text text-anchor="middle" x="534.64" y="-109.45" font-family="Times,serif" font-size="14.00">3</text>
</g>
<!-- 2&#45;&gt;3 -->
<g id="edge19" class="edge">
<title>2&#45;&gt;3</title>
<path fill="none" stroke="black" d="M52.05,-194.18C58.94,-190.57 66.91,-187.02 74.64,-185 156.21,-163.69 373.26,-192.47 453.64,-167 474.16,-160.5 494.59,-147.44 509.81,-136.1"/>
<polygon fill="black" stroke="black" points="511.59,-139.15 517.36,-130.27 507.31,-133.61 511.59,-139.15"/>
<text text-anchor="middle" x="493.39" y="-153.7" font-family="Times,serif" font-size="14.00">~a</text>
</g>
<!-- 2&#45;&gt;9 -->
<g id="edge10" class="edge">
<title>2&#45;&gt;9</title>
<path fill="none" stroke="black" d="M22.15,-190.03C8.42,-166.93 -11.49,-123.94 10.14,-96.5 49.1,-47.05 246.18,-29.8 326,-24.79"/>
<polygon fill="black" stroke="black" points="326.04,-28.29 335.81,-24.2 325.62,-21.3 326.04,-28.29"/>
<text text-anchor="middle" x="42.89" y="-109.45" font-family="Times,serif" font-size="14.00">a &amp; (d | ~c)</text>
</g>
<!-- 3&#45;&gt;3 -->
<g id="edge23" class="edge">
<title>3&#45;&gt;3</title>
<path fill="none" stroke="black" d="M559.17,-122.67C570.14,-123.45 579.64,-120.72 579.64,-114.5 579.64,-110.61 575.93,-108.09 570.47,-106.93"/>
<polygon fill="black" stroke="black" points="570.85,-103.45 560.68,-106.41 570.48,-110.44 570.85,-103.45"/>
<text text-anchor="middle" x="592.39" y="-109.45" font-family="Times,serif" font-size="14.00">True</text>
</g>
<!-- 4 -->
<g id="node6" class="node">
<title>4</title>
<ellipse fill="none" stroke="black" cx="426.64" cy="-114.5" rx="27" ry="18"/>
<text text-anchor="middle" x="426.64" y="-109.45" font-family="Times,serif" font-size="14.00">4</text>
</g>
<!-- 4&#45;&gt;4 -->
<g id="edge17" class="edge">
<title>4&#45;&gt;4</title>
<path fill="none" stroke="black" d="M451.17,-122.67C462.14,-123.45 471.64,-120.72 471.64,-114.5 471.64,-110.61 467.93,-108.09 462.47,-106.93"/>
<polygon fill="black" stroke="black" points="462.85,-103.45 452.68,-106.41 462.48,-110.44 462.85,-103.45"/>
<text text-anchor="middle" x="478.76" y="-109.45" font-family="Times,serif" font-size="14.00">~b</text>
</g>
<!-- 4&#45;&gt;9 -->
<g id="edge8" class="edge">
<title>4&#45;&gt;9</title>
<path fill="none" stroke="black" d="M415.27,-98.15C405.35,-84.74 390.73,-65 378.97,-49.11"/>
<polygon fill="black" stroke="black" points="382.09,-47.45 373.33,-41.5 376.47,-51.62 382.09,-47.45"/>
<text text-anchor="middle" x="402.01" y="-65.2" font-family="Times,serif" font-size="14.00">b</text>
</g>
<!-- 5 -->
<g id="node7" class="node">
<title>5</title>
<ellipse fill="none" stroke="black" cx="230.64" cy="-207" rx="27" ry="18"/>
<text text-anchor="middle" x="230.64" y="-201.95" font-family="Times,serif" font-size="14.00">5</text>
</g>
<!-- 5&#45;&gt;1 -->
<g id="edge15" class="edge">
<title>5&#45;&gt;1</title>
<path fill="none" stroke="black" d="M209.83,-195.21C203.38,-191.9 196.23,-188.27 189.64,-185 173.07,-176.79 166.63,-178.48 152.14,-167 142.78,-159.59 134.19,-149.71 127.27,-140.59"/>
<polygon fill="black" stroke="black" points="130.29,-138.78 121.6,-132.72 124.61,-142.88 130.29,-138.78"/>
<text text-anchor="middle" x="184.89" y="-153.7" font-family="Times,serif" font-size="14.00">b &amp; c &amp; ~d</text>
</g>
<!-- 5&#45;&gt;4 -->
<g id="edge3" class="edge">
<title>5&#45;&gt;4</title>
<path fill="none" stroke="black" d="M236.81,-189.09C242.27,-176.53 251.48,-159.98 264.89,-150.5 284.46,-136.66 347.28,-125.99 388.62,-120.24"/>
<polygon fill="black" stroke="black" points="388.97,-123.72 398.42,-118.91 388.04,-116.78 388.97,-123.72"/>
<text text-anchor="middle" x="302.01" y="-153.7" font-family="Times,serif" font-size="14.00">~b &amp; (d | ~c)</text>
</g>
<!-- 5&#45;&gt;5 -->
<g id="edge7" class="edge">
<title>5&#45;&gt;5</title>
<path fill="none" stroke="black" d="M254.71,-215.87C265.88,-216.84 275.64,-213.88 275.64,-207 275.64,-202.59 271.63,-199.8 265.82,-198.61"/>
<polygon fill="black" stroke="black" points="266.36,-195.13 256.22,-198.2 266.06,-202.12 266.36,-195.13"/>
<text text-anchor="middle" x="311.64" y="-201.95" font-family="Times,serif" font-size="14.00">c &amp; ~b &amp; ~d</text>
</g>
<!-- 5&#45;&gt;9 -->
<g id="edge16" class="edge">
<title>5&#45;&gt;9</title>
<path fill="none" stroke="black" d="M233.86,-188.78C236.29,-177.58 240.17,-162.82 245.64,-150.5 265.45,-105.88 306.83,-65.98 333.91,-43.15"/>
<polygon fill="black" stroke="black" points="335.83,-46.1 341.32,-37.04 331.38,-40.7 335.83,-46.1"/>
<text text-anchor="middle" x="312.26" y="-109.45" font-family="Times,serif" font-size="14.00">b &amp; (d | ~c)</text>
</g>
<!-- 6&#45;&gt;1 -->
<g id="edge18" class="edge">
<title>6&#45;&gt;1</title>
<path fill="none" stroke="black" d="M371.82,-296.3C305.81,-290.28 138.42,-271.08 105.39,-229 95.37,-216.25 100.38,-173.09 105.25,-143.82"/>
<polygon fill="black" stroke="black" points="108.67,-144.58 106.95,-134.12 101.78,-143.36 108.67,-144.58"/>
<text text-anchor="middle" x="150.26" y="-201.95" font-family="Times,serif" font-size="14.00">a &amp; b &amp; c &amp; ~d</text>
</g>
<!-- 6&#45;&gt;3 -->
<g id="edge6" class="edge">
<title>6&#45;&gt;3</title>
<path fill="none" stroke="black" d="M424.46,-293.57C456.47,-285.92 509.72,-267.83 533.64,-229 542.05,-215.35 540.17,-173.18 537.68,-144.27"/>
<polygon fill="black" stroke="black" points="541.17,-143.95 536.75,-134.32 534.2,-144.61 541.17,-143.95"/>
<text text-anchor="middle" x="546.39" y="-201.95" font-family="Times,serif" font-size="14.00">~a</text>
</g>
<!-- 6&#45;&gt;4 -->
<g id="edge20" class="edge">
<title>6&#45;&gt;4</title>
<path fill="none" stroke="black" d="M402.31,-281.18C407.62,-258.22 418.77,-216.9 436.14,-185 441.05,-175.98 447.22,-176.69 450.64,-167 453.89,-157.77 451.02,-147.96 446.28,-139.41"/>
<polygon fill="black" stroke="black" points="449.38,-137.74 440.95,-131.32 443.53,-141.6 449.38,-137.74"/>
<text text-anchor="middle" x="484.39" y="-201.95" font-family="Times,serif" font-size="14.00">a &amp; ~b &amp; (d | ~c)</text>
</g>
<!-- 6&#45;&gt;5 -->
<g id="edge21" class="edge">
<title>6&#45;&gt;5</title>
<path fill="none" stroke="black" d="M371.49,-297.26C342.52,-294.69 296.53,-286.91 264.89,-263.5 255.09,-256.25 247.48,-245.29 241.94,-235.02"/>
<polygon fill="black" stroke="black" points="245.12,-233.56 237.59,-226.11 238.83,-236.63 245.12,-233.56"/>
<text text-anchor="middle" x="314.01" y="-250.2" font-family="Times,serif" font-size="14.00">a &amp; c &amp; ~b &amp; ~d</text>
</g>
<!-- 6&#45;&gt;9 -->
<g id="edge28" class="edge">
<title>6&#45;&gt;9</title>
<path fill="none" stroke="black" d="M391.48,-281.88C381.34,-257.32 363.28,-209.62 356.64,-167 350.71,-129 352.99,-84.68 355.75,-55.35"/>
<polygon fill="black" stroke="black" points="359.21,-55.95 356.75,-45.65 352.25,-55.24 359.21,-55.95"/>
<text text-anchor="middle" x="401.64" y="-153.7" font-family="Times,serif" font-size="14.00">a &amp; b &amp; (d | ~c)</text>
</g>
<!-- 7&#45;&gt;3 -->
<g id="edge5" class="edge">
<title>7&#45;&gt;3</title>
<path fill="none" stroke="black" d="M616.09,-188.58C613.61,-176.73 608.79,-161.3 599.64,-150.5 591.47,-140.87 579.96,-133.47 568.89,-128.01"/>
<polygon fill="black" stroke="black" points="570.48,-124.88 559.92,-123.98 567.61,-131.27 570.48,-124.88"/>
<text text-anchor="middle" x="615.39" y="-153.7" font-family="Times,serif" font-size="14.00">~a</text>
</g>
<!-- 7&#45;&gt;4 -->
<g id="edge25" class="edge">
<title>7&#45;&gt;4</title>
<path fill="none" stroke="black" d="M598.87,-194.43C578.39,-182.67 545.3,-164.27 515.64,-150.5 497.72,-142.19 477.24,-134.04 460.45,-127.71"/>
<polygon fill="black" stroke="black" points="462.02,-124.56 451.42,-124.35 459.57,-131.12 462.02,-124.56"/>
<text text-anchor="middle" x="566.14" y="-153.7" font-family="Times,serif" font-size="14.00">a &amp; ~b</text>
</g>
<!-- 7&#45;&gt;9 -->
<g id="edge2" class="edge">
<title>7&#45;&gt;9</title>
<path fill="none" stroke="black" d="M624.1,-188.97C630.62,-164.96 637.96,-121.31 614.64,-96.5 555.96,-34.08 448,-23.56 393.3,-22.48"/>
<polygon fill="black" stroke="black" points="393.39,-18.98 383.36,-22.39 393.33,-25.98 393.39,-18.98"/>
<text text-anchor="middle" x="645.39" y="-109.45" font-family="Times,serif" font-size="14.00">a &amp; b</text>
</g>
<!-- 8&#45;&gt;3 -->
<g id="edge26" class="edge">
<title>8&#45;&gt;3</title>
<path fill="none" stroke="black" d="M674.83,-190.15C662.79,-178 644.86,-161.49 626.64,-150.5 609.15,-139.95 587.94,-131.62 570.29,-125.74"/>
<polygon fill="black" stroke="black" points="571.59,-122.48 561,-122.77 569.46,-129.15 571.59,-122.48"/>
<text text-anchor="middle" x="655.39" y="-153.7" font-family="Times,serif" font-size="14.00">~a</text>
</g>
<!-- 8&#45;&gt;9 -->
<g id="edge22" class="edge">
<title>8&#45;&gt;9</title>
<path fill="none" stroke="black" d="M690.19,-184.8C689.73,-160.93 685.6,-122.15 665.64,-96.5 632.18,-53.52 465.19,-32.9 392.99,-25.89"/>
<polygon fill="black" stroke="black" points="393.64,-22.43 383.36,-24.98 392.99,-29.4 393.64,-22.43"/>
<text text-anchor="middle" x="684.64" y="-109.45" font-family="Times,serif" font-size="14.00">a</text>
</g>
<!-- 9&#45;&gt;9 -->
<g id="edge12" class="edge">
<title>9&#45;&gt;9</title>
<path fill="none" stroke="black" d="M380.22,-30.78C390.48,-31.99 399.64,-29.07 399.64,-22 399.64,-17.8 396.41,-15.07 391.64,-13.79"/>
<polygon fill="black" stroke="black" points="391.89,-10.3 381.73,-13.3 391.54,-17.29 391.89,-10.3"/>
<text text-anchor="middle" x="412.39" y="-16.95" font-family="Times,serif" font-size="14.00">True</text>
</g>
</g>
</svg>
